<svg id="Layer_1" data-name="Layer 1" xmlns="http://www.w3.org/2000/svg" viewBox="0 0 146.63 28.63"><defs><style>.cls-1{fill:#3c5a99;}</style></defs><title>facebook</title><path class="cls-1" d="M304.93,416.14a6.14,6.14,0,0,0-5.72,2.37v-0.6h0V406.63l-5.84.71v27.51h5.84v-1.63a10.77,10.77,0,0,0,2.45,1.56c3.4,1.22,7.88.23,9.45-4.32a15.16,15.16,0,0,0,.22-8.86A6.81,6.81,0,0,0,304.93,416.14Zm0.87,11.92a3,3,0,0,1-3.41,2.63,4,4,0,0,1-1.16-.26,4,4,0,0,1-1.92-3h0c-0.09-1.29-.2-4,0.43-5.26a3,3,0,0,1,2.7-1.55,3,3,0,0,1,3.35,2.6A16.87,16.87,0,0,1,305.81,428.06Z" transform="translate(-224.32 -406.63)"/><path class="cls-1" d="M325.62,416.48a11.67,11.67,0,0,0-6.1,0,7.35,7.35,0,0,0-5.72,5.77,19.57,19.57,0,0,0-.33,5.14,7.86,7.86,0,0,0,6.38,7.55l0.16,0h0l0.43,0.08h0.15c0.18,0,.4.06,0.63,0.08a11.74,11.74,0,0,0,2.45,0h0.13a8,8,0,0,0,7.66-6.38,13.89,13.89,0,0,0,0-6.17A7.66,7.66,0,0,0,325.62,416.48Zm0.25,11.28c0,0.12,0,.24-0.07.36a3.3,3.3,0,0,1-6.5-.35,22.38,22.38,0,0,1,0-4,3.33,3.33,0,0,1,6.53-.69A17.8,17.8,0,0,1,325.86,427.76Z" transform="translate(-224.32 -406.63)"/><path class="cls-1" d="M238,416.39h-4.17v-2.77c0.3-2.62,4.63-2.12,4.63-2.12V407h0c-0.15,0-8.6-2-10.28,4.39h0v0a32.67,32.67,0,0,0-.24,5h-3.61v4.93h3.83v13.4h5.58v-13.4H238l0.48-4.93H238Z" transform="translate(-224.32 -406.63)"/><path class="cls-1" d="M251.33,418.74l-0.19-.21h0l0,0-0.14-.14h0a5.76,5.76,0,0,0-2.84-2,7.13,7.13,0,0,0-9,4.89,15.79,15.79,0,0,0-.32,7.45c0.95,5.37,4.94,7.17,9.2,6.28a5.51,5.51,0,0,0,3.18-2.22,1.81,1.81,0,0,0,.18-0.29v2.36h5.45V416.41h-5.45v2.34h0ZM250.85,428a3,3,0,0,1-3.2,2.67,3.09,3.09,0,0,1-3.14-2.57,16,16,0,0,1,.12-5.22,2.94,2.94,0,0,1,3.19-2.25,2.9,2.9,0,0,1,3,2.65A22.09,22.09,0,0,1,250.85,428Z" transform="translate(-224.32 -406.63)"/><path class="cls-1" d="M273.41,433.54c-0.25-.92-0.54-1.84-0.82-2.72l-0.26-1s-6.83,3.28-7.89-2.95a13.41,13.41,0,0,1,.07-3.1,3.35,3.35,0,0,1,3.29-3.11,7.35,7.35,0,0,1,1.9.08c0.85,0.14,1.67.4,2.6,0.63,0.32-1,.65-2,1-2.94,0-.15.09-0.29,0.12-0.4h0l0.15-.59a0.7,0.7,0,0,0-.26-0.24h0a3.06,3.06,0,0,0-.84-0.39l-0.5-.17-0.25-.08h0a14.35,14.35,0,0,0-5.5-.36,7.81,7.81,0,0,0-7.36,6.58,15,15,0,0,0,.08,6.09,7.4,7.4,0,0,0,5.5,5.87,13.52,13.52,0,0,0,5.94.29,18.69,18.69,0,0,0,2.9-.87l0.33-.12-0.15-.52h0Z" transform="translate(-224.32 -406.63)"/><path class="cls-1" d="M291.38,426.32a31.29,31.29,0,0,0-.19-3.82,6.83,6.83,0,0,0-6-6.19,15.47,15.47,0,0,0-4-.06c-3.6.34-6.33,2.58-6.89,6a21.45,21.45,0,0,0-.11,6.27c0.41,3.09,1.92,5.06,4.52,6h0c1.19,0.36,7,1.88,12.13-.7l-0.21-.75h0c-0.24-1-.52-2-0.79-3l0-.1-0.3.1h0l-0.67.2-0.12,0a22,22,0,0,1-3.06.64,16,16,0,0,1-3,0c-1.63-.27-2.87-1.14-2.81-3.2h10.74l0.71,0s0-.18,0-0.2v-1.19Zm-5.25-2.52h-6.31c0-1.25.19-2.42,1.3-3.13a3.48,3.48,0,0,1,3.71-.11C286.07,421.25,286.16,422.48,286.13,423.81Z" transform="translate(-224.32 -406.63)"/><polygon class="cls-1" points="146.63 9.97 140.44 9.97 135.06 18.38 135.06 0.84 135.06 0.72 135.06 0.02 129.23 0.72 129.23 28.24 135.06 28.24 135.06 19.82 140.44 28.25 146.63 28.25 140.8 19.1 146.63 9.97"/><path class="cls-1" d="M345.52,416.48a11.67,11.67,0,0,0-6.1,0,7.35,7.35,0,0,0-5.71,5.77,19.58,19.58,0,0,0-.33,5.14,7.86,7.86,0,0,0,6.37,7.55l0.16,0h0l0.43,0.08h0.15c0.18,0,.4.06,0.63,0.08a11.75,11.75,0,0,0,2.45,0h0.13a8,8,0,0,0,7.66-6.38,13.91,13.91,0,0,0,0-6.17A7.67,7.67,0,0,0,345.52,416.48Zm0.25,11.28c0,0.12,0,.24-0.07.36a3.3,3.3,0,0,1-6.5-.35,22.37,22.37,0,0,1,0-4,3.33,3.33,0,0,1,6.54-.69A17.83,17.83,0,0,1,345.77,427.76Z" transform="translate(-224.32 -406.63)"/></svg>