<svg id="Layer_1" data-name="Layer 1" xmlns="http://www.w3.org/2000/svg" viewBox="0 0 366.14 328.48"><defs><style>.cls-1{fill:#c6c6c6;}.cls-2{fill:#3b5998;}.cls-3{fill:#e8e8e8;}.cls-4{fill:#e5e5e5;}.cls-5{fill:#212121;}</style></defs><title>icon-perfil</title><polygon class="cls-1" points="356.94 228.64 254.47 228.81 253.17 198.08 211.42 195.63 211.38 148.2 356.86 147.95 356.94 228.64"/><polygon class="cls-2" points="298.33 236.41 259.87 236.41 256.62 193.96 298.33 193.96 298.33 236.41"/><rect class="cls-3" x="302.94" y="204.84" width="52.72" height="5.46"/><rect class="cls-3" x="302.94" y="212.77" width="28.87" height="4.43"/><polygon class="cls-3" points="292.95 122.13 225.95 118.13 211.62 128.58 57.62 128.58 57.62 99.58 292.94 99.58 292.95 122.13"/><rect class="cls-1" x="93.54" y="203.21" width="234.51" height="70.95" transform="matrix(1, 0, 0, 1, -35.64, -162.98)"/><rect class="cls-2" x="44.27" y="194.16" width="337.29" height="7.01" transform="translate(-35.6 -162.97) rotate(-0.06)"/><rect class="cls-2" x="61.71" y="79.39" width="42.85" height="42.85"/><rect class="cls-4" x="107.71" y="94.39" width="72.63" height="5.51"/><rect class="cls-4" x="58.12" y="133.08" width="74.55" height="68.33"/><polygon class="cls-4" points="209.95 188.8 182.95 189.13 174.62 202.28 136.12 202.28 136.12 133.08 212.95 133.08 209.95 188.8"/><polygon class="cls-1" points="253.68 273.65 179.5 273.82 179.46 217.88 253.65 217.7 253.68 273.65"/><rect class="cls-2" x="185.89" y="252.4" width="28.34" height="32.01"/><rect class="cls-4" x="217.6" y="260.6" width="27.81" height="4.12"/><path class="cls-5" d="M387,278V189a25.87,25.87,0,0,0-25.84-25.84H61.22A25.87,25.87,0,0,0,35.38,189V370.35a25.87,25.87,0,0,0,25.84,25.84h85l-9.73,10.47H121.91a6,6,0,1,0,0,12H205.4v57.87a15.18,15.18,0,0,0,15.16,15.16h64.5a15.18,15.18,0,0,0,15.16-15.16V464.34H381a20.58,20.58,0,0,0,20.55-20.56V297.71A20.59,20.59,0,0,0,387,278h0Zm2.56,19.66v1.64h-138v-1.64a8.57,8.57,0,0,1,8.56-8.56H381a8.56,8.56,0,0,1,8.55,8.56h0ZM285.06,348.4H251.54V311.35h138V430.14h-89.3V363.56a15.18,15.18,0,0,0-15.16-15.16h0Zm3.16,23H217.4v-7.89a3.16,3.16,0,0,1,3.16-3.16h64.5a3.16,3.16,0,0,1,3.16,3.16v7.89ZM375,195v82.11H260.1a20.58,20.58,0,0,0-20.56,20.56V348.4h-19a15.17,15.17,0,0,0-15.16,15.14h-158V195H375ZM217.4,383.45h70.82v73.19H217.4V383.45ZM61.22,175.2h299.9A13.84,13.84,0,0,1,373.58,183H48.77a13.85,13.85,0,0,1,12.45-7.84h0ZM48.4,375.54h157v8.65H61.22a13.85,13.85,0,0,1-12.82-8.65h0Zm104.46,31.12,9.73-10.47h42.8v10.47H152.87Zm132.2,73h-64.5a3.16,3.16,0,0,1-3.16-3.16v-7.89h70.82v7.89a3.16,3.16,0,0,1-3.16,3.16h0ZM381,452.34H300.22v-10.2h89.3v1.64a8.57,8.57,0,0,1-8.55,8.56h0Zm0,0" transform="translate(-35.38 -163.2)"/><rect class="cls-4" x="107.71" y="102.39" width="39.78" height="4.47"/><rect class="cls-4" x="217.6" y="266.6" width="20.2" height="2.9"/></svg>