<svg id="Layer_1" style="fill:#fff" data-name="Layer 1" xmlns="http://www.w3.org/2000/svg" viewBox="0 0 411.13 94.29"><title>logo2</title><path d="M6.12,58a27.36,27.36,0,0,1,1-7.43A27.88,27.88,0,0,1,10,43.85a28.51,28.51,0,0,1,4.4-5.67A27.79,27.79,0,0,1,20,33.81,28.67,28.67,0,0,1,26.72,31,27.91,27.91,0,0,1,45,32.18a28.13,28.13,0,0,1,14.9,14.9,28.07,28.07,0,0,1,0,21.79A28.12,28.12,0,0,1,45,83.78,27.91,27.91,0,0,1,26.72,85,28.63,28.63,0,0,1,20,82.14a27.78,27.78,0,0,1-5.67-4.37A28.51,28.51,0,0,1,10,72.11a27.87,27.87,0,0,1-2.85-6.7A27.35,27.35,0,0,1,6.12,58Zm6.62,0A21.24,21.24,0,0,0,34.12,79.35a21.37,21.37,0,1,0-8.36-41.09A21.18,21.18,0,0,0,12.75,58Z" transform="translate(-6.12 -10.99)"/><path d="M56.79,30.81h2.9a6.84,6.84,0,0,1,3.65,1,5.87,5.87,0,0,1,2.41,2.74l17.7,40.68a10,10,0,0,1,.72,2.43q0.1,0.57.16,1.09a12.7,12.7,0,0,1,.28-1.92,8.84,8.84,0,0,1,.6-1.6l18-40.68a6.27,6.27,0,0,1,2.38-2.79,6.37,6.37,0,0,1,3.52-1H112q-3.1,7.19-6.05,13.92L100.1,58l-5.82,13.3q-2.92,6.68-6,13.82H80.49Z" transform="translate(-6.12 -10.99)"/><path d="M134.62,30a27,27,0,0,1,9.24,1.58,27.53,27.53,0,0,1,13.92,11A29.59,29.59,0,0,1,161.53,51a7.61,7.61,0,0,1,.26,1.81,6.39,6.39,0,0,1-.49,2.51A7.19,7.19,0,0,1,160,57.38a6,6,0,0,1-2,1.42,5.8,5.8,0,0,1-2.43.52H113.3a20.52,20.52,0,0,0,2,8,20.85,20.85,0,0,0,11.23,10.53,21.48,21.48,0,0,0,8.12,1.53,15.22,15.22,0,0,0,2.92-.31,23.83,23.83,0,0,0,3.16-.85,30,30,0,0,0,3.1-1.27,25.48,25.48,0,0,0,2.82-1.55,5.07,5.07,0,0,1,1.63-.67,7.79,7.79,0,0,1,1.73-.21,5.51,5.51,0,0,1,1.48.18,5.12,5.12,0,0,1,1.22.52,7.9,7.9,0,0,1,1.11.8c0.36,0.31.77,0.64,1.22,1a31.61,31.61,0,0,1-4.24,3.54,32,32,0,0,1-5,2.85,30.54,30.54,0,0,1-5.46,1.91,23.7,23.7,0,0,1-5.72.7,27.31,27.31,0,0,1-7.45-1,28.63,28.63,0,0,1-6.68-2.82,27.78,27.78,0,0,1-5.67-4.37,28.51,28.51,0,0,1-4.4-5.67,27.87,27.87,0,0,1-2.85-6.7,27.35,27.35,0,0,1-1-7.43,26.93,26.93,0,0,1,2.23-10.89,28.38,28.38,0,0,1,15-14.9A27.08,27.08,0,0,1,134.62,30Zm0.05,6.62a21.43,21.43,0,0,0-14.21,5.25,21,21,0,0,0-4.66,5.82,20.7,20.7,0,0,0-2.35,7.3,6,6,0,0,1,.91-1.5,2.2,2.2,0,0,1,1.84-.83h38.92a21.07,21.07,0,0,0-2.92-6.8,20.66,20.66,0,0,0-4.74-5,20.29,20.29,0,0,0-6-3.13A21.86,21.86,0,0,0,134.67,36.61Z" transform="translate(-6.12 -10.99)"/><path d="M171,30.81a9.58,9.58,0,0,1,.47,1.11,4.17,4.17,0,0,1,.21,1.37V39.4a11.81,11.81,0,0,1,3-3.75,21.66,21.66,0,0,1,4.61-3,26.07,26.07,0,0,1,5.59-2,26.39,26.39,0,0,1,6-.7,20.76,20.76,0,0,1,6.06.88l-0.52,2.85a4.17,4.17,0,0,1-.67,1.76,2.79,2.79,0,0,1-1.11.91,4.21,4.21,0,0,1-1.45.34q-0.8.05-1.63,0.05h-0.78A20.66,20.66,0,0,0,183.6,38a23.17,23.17,0,0,0-6,3.21,17.17,17.17,0,0,0-4.19,4.42,10.24,10.24,0,0,0-1.73,4.89V85.15H165V30.81h6Z" transform="translate(-6.12 -10.99)"/><path d="M207.84,11V85.15h-6.62V11h6.62Z" transform="translate(-6.12 -10.99)"/><path d="M270.61,55.08a8.32,8.32,0,0,1-1,4.17,8.75,8.75,0,0,1-2.48,2.82,10.18,10.18,0,0,1-3.29,1.58,12.93,12.93,0,0,1-3.44.49H233.61a9.13,9.13,0,0,0,1.81,3.31,10.4,10.4,0,0,0,2.82,2.28,9.16,9.16,0,0,0,4.63,1,8.87,8.87,0,0,0,2.87-.47q1.37-.47,2.72-1t2.77-1a9.84,9.84,0,0,1,3.08-.47,10.41,10.41,0,0,1,4.24.8A11.12,11.12,0,0,1,261.92,71l4.3,4.3a33.29,33.29,0,0,1-10.87,8,29.47,29.47,0,0,1-12.16,2.67,27.39,27.39,0,0,1-10.92-2.2,28.25,28.25,0,0,1-8.93-6,28.68,28.68,0,0,1-6-8.9,27.53,27.53,0,0,1,0-21.68,28.68,28.68,0,0,1,6-8.9,28.25,28.25,0,0,1,8.93-6A27.39,27.39,0,0,1,243.19,30a25.31,25.31,0,0,1,9.26,1.73,29.88,29.88,0,0,1,14.28,11.59,26.14,26.14,0,0,1,3.62,8.36,8.52,8.52,0,0,1,.23,1.84Q270.61,54.56,270.61,55.08ZM253.23,52a13.92,13.92,0,0,0-2.33-3.42,12.1,12.1,0,0,0-3.13-2.35A9.76,9.76,0,0,0,243,45.2a9.2,9.2,0,0,0-4.92,1.22A12.63,12.63,0,0,0,235,49.08a13.79,13.79,0,0,0-2.12,3.83,6.91,6.91,0,0,1,.72-0.41q0.36-.16.83-0.31a3.26,3.26,0,0,1,1-.16h17.8Z" transform="translate(-6.12 -10.99)"/><path d="M273.25,41.26q0.88-1.34,1.91-2.69a29.79,29.79,0,0,1,2-2.33,15.13,15.13,0,0,1,2.43-2.07,25.49,25.49,0,0,1,6.68-3.08,27.94,27.94,0,0,1,8-1.06A30.84,30.84,0,0,1,303,31.12a19,19,0,0,1,6.21,3,16.1,16.1,0,0,1,4.11,4.61,23.52,23.52,0,0,1,2.43,5.77,37.39,37.39,0,0,1,1.16,6.55q0.31,3.44.31,7V85.15h-13.4a6.08,6.08,0,0,1-.78-1.4c-0.17-.45-0.35-1-0.52-1.58a7.64,7.64,0,0,1-.26-2.1A16,16,0,0,1,299,83a17.37,17.37,0,0,1-3.31,1.79,15.75,15.75,0,0,1-3.16.91,16.53,16.53,0,0,1-2.72.26,24.92,24.92,0,0,1-8.12-1.29A20.27,20.27,0,0,1,275.17,81a17,17,0,0,1-4.4-5.67,16.64,16.64,0,0,1-1.6-7.35q0-9,6.81-13.46t19.79-4.45a9.66,9.66,0,0,1,2,.18,9,9,0,0,1,1.35.39,5.37,5.37,0,0,1,1,.57,9.45,9.45,0,0,0-1.81-5.67,5.48,5.48,0,0,0-4.55-2.2,6.35,6.35,0,0,0-2.43.47q-1.14.47-2.28,1t-2.3,1a6.84,6.84,0,0,1-2.56.47,8.77,8.77,0,0,1-3.39-.7A23,23,0,0,1,277.65,44ZM290,71.8a20.26,20.26,0,0,0,4.94-.67,26.37,26.37,0,0,0,5.36-2V61q-0.88-.1-2-0.16t-2.64-.05a19.36,19.36,0,0,0-3.91.39,13.29,13.29,0,0,0-3.36,1.14A7.51,7.51,0,0,0,286,64.14a3.44,3.44,0,0,0-.88,2.28,5.66,5.66,0,0,0,.34,1.89,5.87,5.87,0,0,0,1,1.73,5,5,0,0,0,1.53,1.27A4.21,4.21,0,0,0,290,71.8Z" transform="translate(-6.12 -10.99)"/><path d="M324.79,67.91a13.6,13.6,0,0,1,2.54-1,10.22,10.22,0,0,1,2.85-.39,5.64,5.64,0,0,1,3.36,1.16q1.6,1.16,3.57,2.46a3.82,3.82,0,0,0,1.16.49,5.25,5.25,0,0,0,1.32.18,3.52,3.52,0,0,0,1.24-.23,4.11,4.11,0,0,0,1.11-.62,3.41,3.41,0,0,0,.83-1,2.3,2.3,0,0,0,.34-1.19V67.55a2.35,2.35,0,0,0-.31-1,2.58,2.58,0,0,0-.88-0.83,12.29,12.29,0,0,0-1.66-.83q-1-.44-2.59-1-3-1-5.82-2.35a20.74,20.74,0,0,1-5.12-3.31,15.68,15.68,0,0,1-3.65-4.79,15,15,0,0,1-1.4-6.78,14,14,0,0,1,1.58-6.55,17.41,17.41,0,0,1,4.19-5.25,20.2,20.2,0,0,1,5.92-3.49,18.83,18.83,0,0,1,6.78-1.27,16,16,0,0,1,4.53.65,23.58,23.58,0,0,1,4.11,1.63,26.83,26.83,0,0,1,3.54,2.17q1.63,1.19,2.85,2.25a21.15,21.15,0,0,1,2,1.92q0.75,0.85,1,1.11L354.29,44a16.24,16.24,0,0,1-2.79,1.92,6.18,6.18,0,0,1-2.9.67,4.74,4.74,0,0,1-1.81-.28l-1.4-.62a12.37,12.37,0,0,0-1.68-.62,9.78,9.78,0,0,0-2.67-.29,3,3,0,0,0-2.2.83,2.59,2.59,0,0,0-.85,1.92,3.5,3.5,0,0,0,.16,1.06,1.27,1.27,0,0,0,.62.75,8.3,8.3,0,0,0,1.42.7,13.42,13.42,0,0,0,1.4.41l1.76,0.44q1,0.26,2.51.72,3,0.93,5.49,2a15.79,15.79,0,0,1,4.4,2.77,11.6,11.6,0,0,1,2.92,4.24A16.94,16.94,0,0,1,359.72,67a18.11,18.11,0,0,1-5.64,13.17,20.5,20.5,0,0,1-6.39,4.09,21.06,21.06,0,0,1-8.1,1.53,17.88,17.88,0,0,1-6-1A22.63,22.63,0,0,1,328,81.84a26.48,26.48,0,0,1-5-4.68,31.36,31.36,0,0,1-4-6.24Z" transform="translate(-6.12 -10.99)"/><path d="M357.06,30.81h11.13a11.37,11.37,0,0,1,3.23.47,12,12,0,0,1,3,1.32,9.85,9.85,0,0,1,2.38,2.07,8.65,8.65,0,0,1,1.53,2.72l6.68,17a20.76,20.76,0,0,1,1.16,3.8,15.13,15.13,0,0,1,.28,2.56,6.4,6.4,0,0,1-.1,1.24l-0.1.41L396,37.23a9.53,9.53,0,0,1,4-4.71A11.35,11.35,0,0,1,406,30.81h11.23L387.65,98.6a9.35,9.35,0,0,1-1.6,2.79,10.21,10.21,0,0,1-2.38,2.1,11.75,11.75,0,0,1-6.16,1.79H366.33l11.54-26.65Z" transform="translate(-6.12 -10.99)"/></svg>