<?xml version="1.0" encoding="utf-8"?>
<!-- Generator: Adobe Illustrator 19.2.1, SVG Export Plug-In . SVG Version: 6.00 Build 0)  -->
<svg version="1.1" id="Capa_1" xmlns="http://www.w3.org/2000/svg" xmlns:xlink="http://www.w3.org/1999/xlink" x="0px" y="0px"
	 viewBox="0 0 512 512" style="enable-background:new 0 0 512 512;" xml:space="preserve">
<style type="text/css">
	.st0{fill:#FFFFFF;}
</style>
<g>
	<g>
		<path class="st0" d="M256,204.8c-42.4,0-76.8,34.4-76.8,76.8c0,42.4,34.4,76.8,76.8,76.8c42.4,0,76.8-34.4,76.8-76.8
			C332.8,239.2,298.4,204.8,256,204.8z M460.8,128h-61.4c-8.4,0-17.6-6.6-20.2-14.6l-15.9-47.7c-2.7-8-11.8-14.6-20.2-14.6H169
			c-8.4,0-17.6,6.6-20.2,14.6l-15.9,47.7c-2.7,8-11.8,14.6-20.2,14.6H51.2C23,128,0,151,0,179.2v230.4c0,28.2,23,51.2,51.2,51.2
			h409.6c28.2,0,51.2-23,51.2-51.2V179.2C512,151,489,128,460.8,128z M256,409.6c-70.7,0-128-57.3-128-128c0-70.7,57.3-128,128-128
			c70.7,0,128,57.3,128,128C384,352.3,326.7,409.6,256,409.6z M442.9,215c-9.9,0-17.9-8-17.9-17.9c0-9.9,8-17.9,17.9-17.9
			c9.9,0,17.9,8,17.9,17.9C460.8,207,452.8,215,442.9,215z"/>
	</g>
</g>
</svg>
